<svg xmlns="http://www.w3.org/2000/svg" xmlns:xlink="http://www.w3.org/1999/xlink" width="82" height="81" viewBox="0 0 82 81"><defs><clipPath id="clip-path"><path id="path4149" d="M0-682.665H39.26v39.26H0Z" transform="translate(0 682.665)" fill="none" stroke="#fff" stroke-width="1.5"></path></clipPath></defs><g id="Group_5880" data-name="Group 5880" transform="translate(-306 -1399)"><ellipse id="Ellipse_7" data-name="Ellipse 7" cx="41" cy="40.5" rx="41" ry="40.5" transform="translate(306 1399)" fill="#bfb4b2"></ellipse><g id="g4143" transform="translate(327 1420)"><g id="g4145" transform="translate(0 0)"><g id="g4147" clip-path="url(#clip-path)"><g id="g4153" transform="translate(0.767 15.207)"><path id="path4155" d="M-244.238-28.307a2.957,2.957,0,0,1-2.328-.859h0a2.964,2.964,0,0,0-4.192,0h0a2.964,2.964,0,0,1-4.192,0h0a2.964,2.964,0,0,0-4.192,0" transform="translate(259.141 30.035)" fill="none" stroke="#fff" stroke-linecap="round" stroke-linejoin="round" stroke-miterlimit="10" stroke-width="1.5"></path></g><g id="g4157" transform="translate(30.574 15.207)"><path id="path4159" d="M-129.773-14.228a2.964,2.964,0,0,0-4.192,0h0a2.965,2.965,0,0,1-3.727.38" transform="translate(137.692 15.096)" fill="none" stroke="#fff" stroke-linecap="round" stroke-linejoin="round" stroke-miterlimit="10" stroke-width="1.5"></path></g><g id="g4161" transform="translate(0.767 28.193)"><path id="path4163" d="M-258.718-24.9a2.965,2.965,0,0,1-3.211-.651h0a2.964,2.964,0,0,0-4.192,0h0a2.964,2.964,0,0,1-4.192,0h0a2.964,2.964,0,0,0-4.192,0" transform="translate(274.505 26.417)" fill="none" stroke="#fff" stroke-linecap="round" stroke-linejoin="round" stroke-miterlimit="10" stroke-width="1.5"></path></g><g id="g4165" transform="translate(22.731 28.193)"><path id="path4167" d="M-258.315-14.228a2.964,2.964,0,0,0-4.192,0h0a2.964,2.964,0,0,1-4.192,0h0a2.964,2.964,0,0,0-4.192,0h0a2.965,2.965,0,0,1-3.187.661" transform="translate(274.077 15.096)" fill="none" stroke="#fff" stroke-linecap="round" stroke-linejoin="round" stroke-miterlimit="10" stroke-width="1.5"></path></g><g id="g4169" transform="translate(15.796 2.837)"><path id="path4171" d="M0-337.23v-14.9a5.681,5.681,0,0,1,5.674-5.674,5.681,5.681,0,0,1,5.674,5.674v.562H7.975v-.562a2.3,2.3,0,0,0-2.3-2.3,2.3,2.3,0,0,0-2.3,2.3v13.189" transform="translate(0 357.807)" fill="none" stroke="#fff" stroke-linecap="round" stroke-linejoin="round" stroke-miterlimit="10" stroke-width="1.5"></path></g><g id="g4173" transform="translate(27.144 2.837)"><path id="path4175" d="M0-309.136v-13.189A5.681,5.681,0,0,1,5.674-328a5.681,5.681,0,0,1,5.674,5.674v.562H7.975v-.562a2.3,2.3,0,0,0-2.3-2.3,2.3,2.3,0,0,0-2.3,2.3v14.057" transform="translate(0 327.999)" fill="none" stroke="#fff" stroke-linecap="round" stroke-linejoin="round" stroke-miterlimit="10" stroke-width="1.5"></path></g><path id="path4177" d="M341.307-422.862h-7.975v-3.374h7.975Z" transform="translate(-314.163 440.983)" fill="none" stroke="#fff" stroke-linecap="round" stroke-linejoin="round" stroke-miterlimit="10" stroke-width="1.5"></path><g id="g4179" transform="translate(0.767 21.7)"><path id="path4181" d="M-618.272-14.228a2.964,2.964,0,0,0-4.192,0h0a2.964,2.964,0,0,1-4.192,0h0a2.964,2.964,0,0,0-4.192,0h0a2.964,2.964,0,0,1-4.192,0h0a2.964,2.964,0,0,0-4.192,0h0a2.964,2.964,0,0,1-4.192,0h0a2.964,2.964,0,0,0-4.192,0h0a2.964,2.964,0,0,1-4.192,0h0a2.964,2.964,0,0,0-4.192,0" transform="translate(655.998 15.096)" fill="none" stroke="#fff" stroke-linecap="round" stroke-linejoin="round" stroke-miterlimit="10" stroke-width="1.5"></path></g><g id="g4183" transform="translate(0.767 34.686)"><path id="path4185" d="M-618.272-14.228a2.964,2.964,0,0,0-4.192,0h0a2.964,2.964,0,0,1-4.192,0h0a2.964,2.964,0,0,0-4.192,0h0a2.964,2.964,0,0,1-4.192,0h0a2.964,2.964,0,0,0-4.192,0h0a2.964,2.964,0,0,1-4.192,0h0a2.964,2.964,0,0,0-4.192,0h0a2.964,2.964,0,0,1-4.192,0h0a2.964,2.964,0,0,0-4.192,0" transform="translate(655.998 15.096)" fill="none" stroke="#fff" stroke-linecap="round" stroke-linejoin="round" stroke-miterlimit="10" stroke-width="1.5"></path></g><g id="g4187" transform="translate(19.635 28.198)"><path id="path4189" d="M0,0H0" fill="none" stroke="#fff" stroke-linecap="round" stroke-linejoin="round" stroke-miterlimit="10" stroke-width="1.5"></path></g></g></g></g></g></svg>