<svg xmlns="http://www.w3.org/2000/svg" width="83" height="81" viewBox="0 0 83 81"><g id="Group_5879" data-name="Group 5879" transform="translate(-399 -1399)"><ellipse id="Ellipse_8" data-name="Ellipse 8" cx="41.5" cy="40.5" rx="41.5" ry="40.5" transform="translate(399 1399)" fill="#bfb4b2"></ellipse><g id="bbq" transform="translate(426.012 1418.697)"><path id="Path_336" data-name="Path 336" d="M17.234,55.75a1.484,1.484,0,1,0,1.484,1.484A1.484,1.484,0,0,0,17.234,55.75Zm0,1.979a.495.495,0,1,1,.495-.495A.495.495,0,0,1,17.234,57.729Z" transform="translate(-12.121 -19.133)" fill="#fff" stroke="#fff" stroke-width="0.3"></path><path id="Path_337" data-name="Path 337" d="M37.465,18.874H35.651v-.825a.5.5,0,0,0-.495-.495H33.672V16.07a.5.5,0,0,0-.495-.495H31.485a1.787,1.787,0,0,0,.208-.825,1.816,1.816,0,0,0-1.814-1.814h-6.6a1.816,1.816,0,0,0-1.814,1.814,1.787,1.787,0,0,0,.208.825H19.982a.5.5,0,0,0-.495.495v1.484H15.239L29.323,3.468a.494.494,0,0,0,0-.7,7.092,7.092,0,0,0-10.028,0l-.117.116L18.594,2.3a1.814,1.814,0,0,0-2.566,0l-2.8,2.8a1.814,1.814,0,0,0,0,2.566l.583.583-.117.117a7.088,7.088,0,0,0-.145,9.87v.635H11.734a1.484,1.484,0,1,0,0,2.969h1.814v.825a3.8,3.8,0,0,0,3.5,3.779l-2.218,8.3a3.8,3.8,0,1,0,2.869.766L18.7,31.74H30.5l2.717,10.189a.5.5,0,0,0,.478.367h2.049a.495.495,0,0,0,.478-.622L32.158,26.446a3.8,3.8,0,0,0,3.493-3.778v-.825h1.814a1.484,1.484,0,0,0,0-2.969ZM13.549,20.853H11.734a.495.495,0,1,1,0-.99h1.814Zm19.133-4.289v.99H30.373v-.99Zm-9.4-2.639h6.6a.825.825,0,1,1,0,1.649h-6.6a.825.825,0,1,1,0-1.649Zm6.1,2.639v.99H27.074v-.99Zm-3.3,0v.99H23.775v-.99Zm-5.608,0h2.309v.99H20.476ZM13.934,5.8l2.785-2.786a.835.835,0,0,1,1.18,0l.576.577L14.51,7.552l-.576-.576a.835.835,0,0,1,0-1.18Zm-1.328,7.587a6.063,6.063,0,0,1,1.787-4.316l5.6-5.6a6.1,6.1,0,0,1,8.267-.335l-14.2,14.2a6.057,6.057,0,0,1-1.451-3.951ZM18.167,38.5a2.8,2.8,0,1,1-2.8-2.8A2.8,2.8,0,0,1,18.167,38.5ZM16.81,35a3.738,3.738,0,0,0-.957-.253l2.209-8.283h1.024Zm2.157-4.247,1.143-4.288H29.09l1.143,4.288ZM35.1,41.306H34.072L30.114,26.461h1.024Zm-.435-18.638a2.807,2.807,0,0,1-2.8,2.8H17.343a2.807,2.807,0,0,1-2.8-2.8V18.544H34.661Zm2.8-1.814H35.651v-.99h1.814a.495.495,0,0,1,0,.99Z" transform="translate(-10.25 -0.401)" fill="#fff" stroke="#fff" stroke-width="0.3"></path><path id="Path_338" data-name="Path 338" d="M41.745,6.412a.5.5,0,0,0,.495-.495V3.745a.495.495,0,1,0-.99,0V5.917A.5.5,0,0,0,41.745,6.412Z" transform="translate(-20.797 -1.271)" fill="#fff" stroke="#fff" stroke-width="0.3"></path><path id="Path_339" data-name="Path 339" d="M37.506,10.176A5.59,5.59,0,0,0,35.521,13.2a.5.5,0,0,0,.354.6.509.509,0,0,0,.125.016.5.5,0,0,0,.479-.371,4.612,4.612,0,0,1,1.637-2.491.495.495,0,0,0-.61-.78Z" transform="translate(-18.842 -3.591)" fill="#fff" stroke="#fff" stroke-width="0.3"></path><path id="Path_340" data-name="Path 340" d="M38.745,11.8a.5.5,0,0,0,.495-.495,2.693,2.693,0,0,1,1.5-2.422A4.43,4.43,0,0,0,43.2,4.9V.745a.495.495,0,0,0-.99,0V4.9A3.445,3.445,0,0,1,40.3,8a3.677,3.677,0,0,0-2.045,3.3.5.5,0,0,0,.495.495Z" transform="translate(-19.776 -0.25)" fill="#fff" stroke="#fff" stroke-width="0.3"></path></g></g></svg>