<svg xmlns="http://www.w3.org/2000/svg" width="81" height="81" viewBox="0 0 81 81"><g id="Group_5870" data-name="Group 5870" transform="translate(-1241 -1399)"><circle id="Ellipse_17" data-name="Ellipse 17" cx="40.5" cy="40.5" r="40.5" transform="translate(1241 1399)" fill="#bfb4b2"></circle><g id="rayo" transform="translate(1258.901 1416.705)"><path id="Path_389" data-name="Path 389" d="M12.429,5.571a.929.929,0,0,1-.929-.929V.929a.929.929,0,0,1,1.857,0V4.643A.929.929,0,0,1,12.429,5.571Z" transform="translate(9.857)" fill="#fff"></path><path id="Path_390" data-name="Path 390" d="M19.147,7.85a.928.928,0,0,1-.657-1.584L21.115,3.64a.928.928,0,0,1,1.313,1.313L19.8,7.579A.925.925,0,0,1,19.147,7.85Z" transform="translate(15.615 2.887)" fill="#fff"></path><path id="Path_391" data-name="Path 391" d="M25.643,13.357H21.929a.929.929,0,1,1,0-1.857h3.714a.929.929,0,0,1,0,1.857Z" transform="translate(18 9.857)" fill="#fff"></path><path id="Path_392" data-name="Path 392" d="M21.773,22.7a.933.933,0,0,1-.657-.271L18.489,19.8A.928.928,0,0,1,19.8,18.49l2.626,2.626a.928.928,0,0,1-.656,1.584Z" transform="translate(15.615 15.616)" fill="#fff"></path><path id="Path_393" data-name="Path 393" d="M12.429,26.571a.929.929,0,0,1-.929-.929V21.929a.929.929,0,1,1,1.857,0v3.714A.929.929,0,0,1,12.429,26.571Z" transform="translate(9.857 18)" fill="#fff"></path><path id="Path_394" data-name="Path 394" d="M4.3,22.7a.928.928,0,0,1-.657-1.584L6.265,18.49A.928.928,0,1,1,7.578,19.8L4.952,22.429A.925.925,0,0,1,4.3,22.7Z" transform="translate(2.887 15.616)" fill="#fff"></path><path id="Path_395" data-name="Path 395" d="M4.643,13.357H.929a.929.929,0,0,1,0-1.857H4.643a.929.929,0,0,1,0,1.857Z" transform="translate(0 9.857)" fill="#fff"></path><path id="Path_396" data-name="Path 396" d="M6.922,7.85a.933.933,0,0,1-.657-.271L3.64,4.953A.928.928,0,0,1,4.953,3.64L7.579,6.266A.928.928,0,0,1,6.922,7.85Z" transform="translate(2.887 2.887)" fill="#fff"></path><path id="Path_397" data-name="Path 397" d="M13.636,33.715a.945.945,0,0,1-.325-.058.928.928,0,0,1-.6-.992L14.3,20.715H7.929a.929.929,0,0,1-.743-1.486L18.329,4.372a.929.929,0,0,1,1.66.709L18.31,15.144h6.333a.927.927,0,0,1,.817.488.937.937,0,0,1-.041.953L14.412,33.3a.933.933,0,0,1-.776.416ZM9.786,18.858h5.571a.931.931,0,0,1,.921,1.051l-1.19,8.985L22.919,17H17.214A.927.927,0,0,1,16.3,15.92L17.53,8.532Z" transform="translate(6 3.428)" fill="#fff"></path></g></g></svg>