<svg xmlns="http://www.w3.org/2000/svg" width="81" height="81" viewBox="0 0 81 81"><g id="Group_5870" data-name="Group 5870" transform="translate(-118 -1399)"><circle id="Ellipse_5" data-name="Ellipse 5" cx="40.5" cy="40.5" r="40.5" transform="translate(118 1399)" fill="#bfb4b2"></circle><g id="Playground" transform="translate(139.576 1418.697)"><path id="Path_369" data-name="Path 369" d="M21.329,50.394a4.4,4.4,0,1,0-4.4-4.4A4.4,4.4,0,0,0,21.329,50.394Zm0-7.421a3.02,3.02,0,1,1-3.021,3.02A3.02,3.02,0,0,1,21.329,42.973ZM47.054,59.955c-3.89,0-4.681-2.291-5.878-5.758C40.2,51.353,38.505,45.392,29.47,45c0-8.778,0-2.174,0-9.509h3.077a.691.691,0,0,0,.413-1.244l-9.134-6.812a4.2,4.2,0,0,0-5,0L9.7,34.25a.691.691,0,0,0,.412,1.244h3.079c0,12.577,0,18.936,0,19.533H10.765a.69.69,0,0,0-.69.69v2.466H8.727a.69.69,0,0,0-.69.69v2.466H6.69a.69.69,0,0,0-.69.69v3.156a.69.69,0,0,0,.69.69h11.3a.69.69,0,0,0,.69-.69V60.463c0-3.5,5.3-3.5,5.3,0v4.722a.69.69,0,0,0,.69.69h7.18a.69.69,0,0,0,.69-.69V59.912a1.95,1.95,0,0,1,3.9,0v5.2a.7.7,0,0,0,0,.071.69.69,0,0,0,.69.69h9.929a.69.69,0,0,0,.69-.69v-1.9A1.739,1.739,0,0,0,47.054,59.955Zm-7.183-5.308c1.188,3.44,2.31,6.688,7.183,6.688a.358.358,0,0,1,0,.715c-5.382,0-6.7-3.809-7.875-7.226-.96-2.762-2.224-7.362-9.71-7.725v-.715C37.495,46.757,38.9,51.833,39.871,54.647ZM25.042,35.494v3.451H17.618V35.494Zm3.047,4.831V51.662H14.569V40.325Zm0-1.38H26.423V35.494h1.669Zm-8.435-10.4a2.814,2.814,0,0,1,3.345,0l7.467,5.569H12.19Zm-3.419,6.949v3.451H14.569V35.494ZM7.38,62.719H8.727a.69.69,0,0,0,.69-.69V59.563h1.347a.69.69,0,0,0,.69-.69V56.407h1.731V64.5H7.38Zm9.92-2.256V64.5H14.566V53.044H28.092V64.5H25.358V60.463C25.358,55.139,17.3,55.139,17.3,60.463ZM37.819,64.5V59.912c0-4.4-6.661-4.4-6.661,0V64.5H29.472c0-9.364,0-15.105,0-16.014,6.48.342,7.458,4.072,8.425,6.85,1.135,3.288,2.685,7.734,8.47,8.067v1.1Z" transform="translate(-6 -26.616)" fill="#fff"></path></g></g></svg>