<svg xmlns="http://www.w3.org/2000/svg" width="37.789" height="35.527" viewBox="0 0 37.789 35.527"><g id="Group_38" data-name="Group 38" transform="translate(-1465 -401)"><g id="Icon" transform="translate(1465 401)"><path id="Path_28" data-name="Path 28" d="M19.768,31.556H5.777A2.111,2.111,0,0,1,3.719,29.4V7.38A2.112,2.112,0,0,1,5.777,5.219H32.113A2.112,2.112,0,0,1,34.171,7.38V24.56a1.235,1.235,0,1,0,2.469,0V7.38a4.581,4.581,0,0,0-4.527-4.63H5.777A4.581,4.581,0,0,0,1.25,7.38V29.4a4.58,4.58,0,0,0,4.527,4.629H19.768a1.235,1.235,0,0,0,0-2.469Z" transform="translate(-1.25 -0.281)" fill="#fff" fill-rule="evenodd"></path><path id="Path_29" data-name="Path 29" d="M4.75,2.485V7.423a1.235,1.235,0,0,0,2.469,0V2.485a1.235,1.235,0,1,0-2.469,0Z" transform="translate(1.011 -1.25)" fill="#fff" fill-rule="evenodd"></path><path id="Path_30" data-name="Path 30" d="M17.75,2.485V7.423a1.235,1.235,0,0,0,2.469,0V2.485a1.235,1.235,0,1,0-2.469,0Z" transform="translate(9.41 -1.25)" fill="#fff" fill-rule="evenodd"></path><path id="Path_31" data-name="Path 31" d="M11.25,2.485V7.423a1.235,1.235,0,0,0,2.469,0V2.485a1.235,1.235,0,0,0-2.469,0Z" transform="translate(5.21 -1.25)" fill="#fff" fill-rule="evenodd"></path><path id="Path_32" data-name="Path 32" d="M2.485,10.719H35.405a1.235,1.235,0,0,0,0-2.469H2.485a1.235,1.235,0,1,0,0,2.469Z" transform="translate(-1.25 3.272)" fill="#fff" fill-rule="evenodd"></path></g><path id="Path_38" data-name="Path 38" d="M27.126,21.672c-.494-.248-2.925-1.443-3.378-1.609s-.783-.247-1.112.248-1.277,1.609-1.566,1.938-.577.371-1.071.124a13.5,13.5,0,0,1-3.976-2.454,14.913,14.913,0,0,1-2.75-3.425c-.288-.5,0-.737.217-1.009a13.986,13.986,0,0,0,1.236-1.691.909.909,0,0,0-.041-.866c-.123-.247-1.112-2.681-1.524-3.671-.4-.964-.809-.834-1.113-.849-.288-.014-.618-.017-.948-.017a1.816,1.816,0,0,0-1.319.619,5.545,5.545,0,0,0-1.73,4.124,9.618,9.618,0,0,0,2.019,5.114c.247.33,3.486,5.324,8.446,7.465a28.3,28.3,0,0,0,2.819,1.042,6.778,6.778,0,0,0,3.114.2c.95-.142,2.925-1.2,3.337-2.351a4.131,4.131,0,0,0,.288-2.351C27.95,22.043,27.62,21.919,27.126,21.672Zm0,0" transform="translate(1474.644 409.481)" fill="#fff" fill-rule="evenodd"></path></g></svg>