<svg xmlns="http://www.w3.org/2000/svg" width="83" height="81" viewBox="0 0 83 81"><g id="Group_5873" data-name="Group 5873" transform="translate(-959 -1399)"><ellipse id="Ellipse_14" data-name="Ellipse 14" cx="41.5" cy="40.5" rx="41.5" ry="40.5" transform="translate(959 1399)" fill="#bfb4b2"></ellipse><g id="lobby" transform="translate(980.8 1419.198)"><path id="Path_361" data-name="Path 361" d="M3.979,53.494H28.391v-1.32H22.453V46.9h3.3v-1.32h-13.2v-1.32h13.2v-1.32h-13.2a1.321,1.321,0,0,0-1.32,1.32v.66H7.278V43.6A2.637,2.637,0,0,0,5.3,41.052V38.979a.661.661,0,0,1,.66-.66H25.752V37H5.959a1.981,1.981,0,0,0-1.979,1.979v2.073A2.637,2.637,0,0,0,2,43.6v7.917a1.981,1.981,0,0,0,1.979,1.979Zm17.154-6.6v5.278H13.876V46.9Zm-9.713-.66a1.315,1.315,0,0,0,1.136.66v5.278H7.278V46.237ZM3.32,43.6a1.32,1.32,0,1,1,2.639,0v8.577H3.979a.661.661,0,0,1-.66-.66Z" transform="translate(-2 -13.908)" fill="#fff" stroke="#fff" stroke-width="0.3"></path><path id="Path_362" data-name="Path 362" d="M26.577,2V7.938h-6.6A1.981,1.981,0,0,0,18,9.917v1.32a1.981,1.981,0,0,0,1.979,1.979h.252l1.432,2.865a1.969,1.969,0,0,0,1.77,1.094H31.04a1.969,1.969,0,0,0,1.77-1.094l1.432-2.865h.252a1.981,1.981,0,0,0,1.979-1.979V9.917a1.981,1.981,0,0,0-1.979-1.979H27.9V2Zm3.3,9.9V9.257h2.639V11.9Zm-7.917,0V9.257H24.6V11.9Zm7.509,1.32-1.32,2.639H26.325l-1.32-2.639Zm-.912-1.32H25.917V9.257h2.639Zm-9.237-.66V9.917a.661.661,0,0,1,.66-.66h.66V11.9h-.66A.661.661,0,0,1,19.32,11.237Zm3.524,4.254-1.137-2.274H23.53l1.32,2.639H23.434A.656.656,0,0,1,22.844,15.49Zm8.786,0a.656.656,0,0,1-.59.365H29.624l1.32-2.639h1.823Zm3.524-5.573v1.32a.661.661,0,0,1-.66.66h-.66V9.257h.66a.661.661,0,0,1,.66.66Z" transform="translate(-7.444 -2)" fill="#fff" stroke="#fff" stroke-width="0.3"></path><path id="Path_363" data-name="Path 363" d="M31,31h1.32v1.979H31Z" transform="translate(-11.867 -11.867)" fill="#fff" stroke="#fff" stroke-width="0.3"></path><path id="Path_364" data-name="Path 364" d="M0,0H1.979V1.32H0Z" transform="translate(9.527 16.588) rotate(-45)" fill="#fff" stroke="#fff" stroke-width="0.3"></path><path id="Path_365" data-name="Path 365" d="M11,12h1.979v1.32H11Z" transform="translate(-5.062 -5.402)" fill="#fff" stroke="#fff" stroke-width="0.3"></path><path id="Path_366" data-name="Path 366" d="M50,12h1.979v1.32H50Z" transform="translate(-18.331 -5.402)" fill="#fff" stroke="#fff" stroke-width="0.3"></path><path id="Path_367" data-name="Path 367" d="M0,0H1.32V1.979H0Z" transform="translate(27.72 16.123) rotate(-45)" fill="#fff" stroke="#fff" stroke-width="0.3"></path><circle id="Ellipse_18" data-name="Ellipse 18" cx="0.638" cy="0.638" r="0.638" transform="translate(16.17 35.052)" fill="#fff" stroke="#fff" stroke-width="0.3"></circle><circle id="Ellipse_19" data-name="Ellipse 19" cx="0.638" cy="0.638" r="0.638" transform="translate(21.271 35.052)" fill="#fff" stroke="#fff" stroke-width="0.3"></circle><path id="Path_368" data-name="Path 368" d="M52.536,35.959H50.556V33.979A1.981,1.981,0,0,0,48.577,32H45.938a1.981,1.981,0,0,0-1.979,1.979v1.979H41.979A1.981,1.981,0,0,0,40,37.938v9.237a1.981,1.981,0,0,0,1.979,1.979h.781a1.956,1.956,0,0,0-.122.66,1.979,1.979,0,0,0,3.959,0,1.956,1.956,0,0,0-.122-.66h1.563a1.956,1.956,0,0,0-.122.66,1.979,1.979,0,0,0,3.959,0,1.956,1.956,0,0,0-.122-.66h.781a1.981,1.981,0,0,0,1.979-1.979V37.938a1.981,1.981,0,0,0-1.979-1.979Zm-7.257-1.979a.661.661,0,0,1,.66-.66h2.639a.661.661,0,0,1,.66.66v1.979H45.278Zm0,15.834a.66.66,0,1,1-.66-.66A.66.66,0,0,1,45.278,49.814Zm5.278,0a.66.66,0,1,1-.66-.66A.66.66,0,0,1,50.556,49.814ZM53.2,47.175a.661.661,0,0,1-.66.66H41.979a.661.661,0,0,1-.66-.66V37.938a.661.661,0,0,1,.66-.66H43.3V45.2h1.32V37.278H46.6V45.2h1.32V37.278H49.9V45.2h1.32V37.278h1.32a.661.661,0,0,1,.66.66Z" transform="translate(-14.929 -12.207)" fill="#fff" stroke="#fff" stroke-width="0.3"></path></g></g></svg>