<svg xmlns="http://www.w3.org/2000/svg" width="82" height="81" viewBox="0 0 82 81"><g id="Group_5874" data-name="Group 5874" transform="translate(-867 -1399)"><ellipse id="Ellipse_13" data-name="Ellipse 13" cx="41" cy="40.5" rx="41" ry="40.5" transform="translate(867 1399)" fill="#bfb4b2"></ellipse><g id="raqueta-de-tenis" transform="translate(889.027 1421.359)"><path id="Path_378" data-name="Path 378" d="M1.448,36.513a2.4,2.4,0,0,0,3.378,0l4.942-4.923a2.364,2.364,0,0,0,.7-1.686,2.416,2.416,0,0,0-.025-.258c.714-.518,3.831-2.671,6.617-2.937a12.513,12.513,0,0,0,4.3.744,15.567,15.567,0,0,0,10.863-4.679,15.52,15.52,0,0,0,4.7-10.829,11.632,11.632,0,0,0-3.331-8.332C28.669-1.292,20.049-.679,14.374,4.979a15.522,15.522,0,0,0-4.7,10.83,12.275,12.275,0,0,0,.9,4.678c-.265,2.7-2.339,5.554-2.932,6.319a2.382,2.382,0,0,0-2,.666L.7,32.4a2.38,2.38,0,0,0,0,3.372ZM15.026,5.633C20.341.333,28.375-.28,32.937,4.267A10.718,10.718,0,0,1,36,11.945a14.591,14.591,0,0,1-4.43,10.175c-5.316,5.3-13.351,5.913-17.911,1.366a10.718,10.718,0,0,1-3.06-7.677A14.594,14.594,0,0,1,15.026,5.633Zm-3.766,16.24a10.95,10.95,0,0,0,4.322,4.174,18.519,18.519,0,0,0-5.437,2.678,2.373,2.373,0,0,0-.376-.506l-.748-.745a2.361,2.361,0,0,0-.456-.347A16.48,16.48,0,0,0,11.259,21.873ZM1.352,33.049l4.942-4.922a1.472,1.472,0,0,1,2.075,0l.748.745a1.458,1.458,0,0,1,0,2.065L4.175,35.859a1.473,1.473,0,0,1-2.075,0l-.748-.746a1.457,1.457,0,0,1,0-2.065Zm0,0" transform="translate(0 -0.3)" fill="#fff" stroke="#fff" stroke-width="0.5"></path><path id="Path_379" data-name="Path 379" d="M147.227,52.437a12.775,12.775,0,0,0,12.4-12.357,9.293,9.293,0,0,0-2.661-6.655c-3.927-3.915-10.8-3.431-15.327,1.08a12.368,12.368,0,0,0-3.745,8.63,9.075,9.075,0,0,0,9.333,9.3Zm-8.409-9.3a10.382,10.382,0,0,1,.484-3.092l1.615,1.61-2.072,2.066C138.832,43.525,138.818,43.332,138.818,43.135Zm2.752-.831,2.889,2.88-3.588,3.578a8.178,8.178,0,0,1-1.886-3.88Zm5.017-9.921,1.813,1.808-3.089,3.079-2.558-2.55A11.985,11.985,0,0,1,146.587,32.383Zm2.467,2.459,2.889,2.88L148.854,40.8l-2.889-2.88Zm6.883-1.1L152.6,37.071l-2.889-2.88,2.335-2.328A8.176,8.176,0,0,1,155.937,33.74Zm2.768,6.34a10.314,10.314,0,0,1-.371,2.711l-1.542-1.537,1.881-1.875C158.691,39.611,158.705,39.844,158.705,40.08Zm-.69,3.7a12,12,0,0,1-2.346,3.819l-2.618-2.611,3.089-3.079Zm-6.732,6.908-1.975-1.969,3.089-3.079,2.622,2.614A12.058,12.058,0,0,1,151.283,50.685Zm-9.76-1.27,3.589-3.579L148,48.716l-2.62,2.613A8.146,8.146,0,0,1,141.523,49.414Zm4.243-4.23,3.089-3.079,2.889,2.88-3.089,3.079Zm6.631-.851-2.889-2.88,3.089-3.079,2.889,2.88Zm-4.2-2.88-3.089,3.079-2.889-2.88,3.089-3.079Zm-1.666,10.028,2.12-2.113,1.667,1.662A10.355,10.355,0,0,1,146.535,51.481Zm11.983-13.235a.42.42,0,0,0-.045.03L156.139,40.6l-2.889-2.88,3.345-3.335A8.154,8.154,0,0,1,158.518,38.246Zm-7.642-6.523-1.822,1.816-1.477-1.472a10.439,10.439,0,0,1,2.717-.369C150.49,31.7,150.683,31.711,150.876,31.723Zm-8.782,3.642,2.565,2.557L141.57,41l-1.921-1.915A12.091,12.091,0,0,1,142.094,35.365Zm0,0" transform="translate(-125.465 -28.031)" fill="#fff" stroke="#fff" stroke-width="0.5"></path></g></g></svg>