<svg xmlns="http://www.w3.org/2000/svg" width="83" height="81" viewBox="0 0 83 81"><g id="Group_5871" data-name="Group 5871" transform="translate(-1146 -1399)"><ellipse id="Ellipse_16" data-name="Ellipse 16" cx="41.5" cy="40.5" rx="41.5" ry="40.5" transform="translate(1146 1399)" fill="#bfb4b2"></ellipse><g id="eliminar" transform="translate(1171.745 1418.877)"><path id="Path_357" data-name="Path 357" d="M223.341,154.7a.942.942,0,0,0-.942.942v17.805a.942.942,0,0,0,1.884,0V155.645A.942.942,0,0,0,223.341,154.7Zm0,0" transform="translate(-201.446 -140.129)" fill="#fff"></path><path id="Path_358" data-name="Path 358" d="M105.341,154.7a.942.942,0,0,0-.942.942v17.805a.942.942,0,0,0,1.884,0V155.645A.942.942,0,0,0,105.341,154.7Zm0,0" transform="translate(-94.563 -140.129)" fill="#fff"></path><path id="Path_359" data-name="Path 359" d="M2.672,11.975V35.185A5.2,5.2,0,0,0,4.054,38.77,4.639,4.639,0,0,0,7.42,40.226H25.245a4.638,4.638,0,0,0,3.366-1.455,5.2,5.2,0,0,0,1.382-3.585V11.975A3.6,3.6,0,0,0,29.069,4.9H24.246V3.72A3.7,3.7,0,0,0,20.515,0H12.15A3.7,3.7,0,0,0,8.419,3.72V4.9H3.6a3.6,3.6,0,0,0-.923,7.077ZM25.245,38.341H7.42a2.984,2.984,0,0,1-2.864-3.156V12.057H28.109V35.185A2.984,2.984,0,0,1,25.245,38.341ZM10.3,3.72A1.815,1.815,0,0,1,12.15,1.883h8.365A1.815,1.815,0,0,1,22.362,3.72V4.9H10.3ZM3.6,6.782H29.069a1.7,1.7,0,1,1,0,3.391H3.6a1.7,1.7,0,1,1,0-3.391Zm0,0" transform="translate(0.003 0.001)" fill="#fff"></path><path id="Path_360" data-name="Path 360" d="M164.341,154.7a.942.942,0,0,0-.942.942v17.805a.942.942,0,0,0,1.884,0V155.645A.942.942,0,0,0,164.341,154.7Zm0,0" transform="translate(-148.005 -140.129)" fill="#fff"></path></g></g></svg>