<svg xmlns="http://www.w3.org/2000/svg" width="83" height="81" viewBox="0 0 83 81"><g id="Group_5876" data-name="Group 5876" transform="translate(-679 -1399)"><ellipse id="Ellipse_11" data-name="Ellipse 11" cx="41.5" cy="40.5" rx="41.5" ry="40.5" transform="translate(679 1399)" fill="#bfb4b2"></ellipse><g id="cancha-de-futbol" transform="translate(707.415 1421.761)"><path id="Path_341" data-name="Path 341" d="M37.916,39.023H12.529A.529.529,0,0,1,12,38.494V2.529A.529.529,0,0,1,12.529,2H37.916a.529.529,0,0,1,.529.529V38.494A.529.529,0,0,1,37.916,39.023ZM13.058,37.965H37.387V3.058H13.058Z" transform="translate(-12 -2)" fill="#fff" stroke="#fff" stroke-width="0.3"></path><path id="Path_342" data-name="Path 342" d="M37.4,7.289H21.529A.529.529,0,0,1,21,6.76V2.529A.529.529,0,0,1,21.529,2H37.4a.529.529,0,0,1,.529.529V6.76A.529.529,0,0,1,37.4,7.289ZM22.058,6.231H36.867V3.058H22.058Z" transform="translate(-16.24 -2)" fill="#fff" stroke="#fff" stroke-width="0.3"></path><path id="Path_343" data-name="Path 343" d="M37.4,67.289H21.529A.529.529,0,0,1,21,66.76V62.529A.529.529,0,0,1,21.529,62H37.4a.529.529,0,0,1,.529.529V66.76A.529.529,0,0,1,37.4,67.289ZM22.058,66.231H36.867V63.058H22.058Z" transform="translate(-16.24 -30.266)" fill="#fff" stroke="#fff" stroke-width="0.3"></path><path id="Path_344" data-name="Path 344" d="M33.231,14.76A4.236,4.236,0,0,1,29,10.529a.529.529,0,0,1,1.058,0,3.173,3.173,0,0,0,6.347,0,.529.529,0,0,1,1.058,0,4.236,4.236,0,0,1-4.231,4.231Z" transform="translate(-20.009 -5.769)" fill="#fff" stroke="#fff" stroke-width="0.3"></path><path id="Path_345" data-name="Path 345" d="M36.933,59.76a.529.529,0,0,1-.529-.529,3.173,3.173,0,0,0-6.347,0,.529.529,0,0,1-1.058,0,4.231,4.231,0,0,1,8.462,0A.529.529,0,0,1,36.933,59.76Z" transform="translate(-20.009 -26.968)" fill="#fff" stroke="#fff" stroke-width="0.3"></path><path id="Path_346" data-name="Path 346" d="M37.916,37.058H12.529a.529.529,0,0,1,0-1.058H37.916a.529.529,0,1,1,0,1.058Z" transform="translate(-12 -18.017)" fill="#fff" stroke="#fff" stroke-width="0.3"></path><path id="Path_347" data-name="Path 347" d="M32.76,37.52a4.76,4.76,0,1,1,4.76-4.76A4.76,4.76,0,0,1,32.76,37.52Zm0-8.462a3.7,3.7,0,1,0,3.7,3.7A3.7,3.7,0,0,0,32.76,29.058Z" transform="translate(-19.538 -14.249)" fill="#fff" stroke="#fff" stroke-width="0.3"></path></g></g></svg>