<svg xmlns="http://www.w3.org/2000/svg" id="Group_33" data-name="Group 33" width="30.872" height="40.53" viewBox="0 0 30.872 40.53"><g id="Group_30" data-name="Group 30" transform="translate(0)"><g id="Group_29" data-name="Group 29"><path id="Path_23" data-name="Path 23" d="M76.436,0A15.454,15.454,0,0,0,61,15.436c0,5.495,1.671,7.7,9.7,18.287,1.394,1.838,2.975,3.921,4.783,6.332a1.187,1.187,0,0,0,1.9,0c1.8-2.4,3.371-4.473,4.759-6.3,8.051-10.619,9.727-12.829,9.727-18.314A15.454,15.454,0,0,0,76.436,0Zm3.817,32.316c-1.14,1.5-2.405,3.172-3.817,5.05-1.422-1.889-2.694-3.566-3.84-5.078-7.813-10.3-9.221-12.156-9.221-16.851a13.061,13.061,0,0,1,26.123,0C89.5,20.123,88.086,21.984,80.253,32.316Z" transform="translate(-61)" fill="#fff"></path></g></g><g id="Group_32" data-name="Group 32" transform="translate(7.124 7.124)"><g id="Group_31" data-name="Group 31" transform="translate(0)"><path id="Path_24" data-name="Path 24" d="M159.312,90a8.312,8.312,0,1,0,8.312,8.312A8.321,8.321,0,0,0,159.312,90Zm0,14.249a5.937,5.937,0,1,1,5.937-5.937A5.944,5.944,0,0,1,159.312,104.249Z" transform="translate(-151 -90)" fill="#fff"></path></g></g></svg>