<svg xmlns="http://www.w3.org/2000/svg" width="81" height="81" viewBox="0 0 81 81"><g id="Group_5875" data-name="Group 5875" transform="translate(-774 -1399)"><circle id="Ellipse_12" data-name="Ellipse 12" cx="40.5" cy="40.5" r="40.5" transform="translate(774 1399)" fill="#bfb4b2"></circle><g id="peso" transform="translate(791.303 1426.421)"><g id="Group_5733" data-name="Group 5733" transform="translate(0 0)"><path id="Path_370" data-name="Path 370" d="M45.649,119.35H44.9v-2.029a4.247,4.247,0,0,0-4.242-4.242H39.6a3.914,3.914,0,0,0-7.695,1.017v6.478H16.727V114.1a3.914,3.914,0,0,0-7.694-1.017H7.975a4.247,4.247,0,0,0-4.242,4.242v2.029H2.987A2.99,2.99,0,0,0,0,122.337v3.383a2.99,2.99,0,0,0,2.987,2.986h.746v2.039a4.247,4.247,0,0,0,4.242,4.242H9.033a3.914,3.914,0,0,0,7.694-1.017v-6.478H29.741a.712.712,0,1,0,0-1.425H16.727V122H31.908V133.97a3.914,3.914,0,0,0,7.695,1.017h1.058a4.247,4.247,0,0,0,4.242-4.242v-2.039h.746a2.99,2.99,0,0,0,2.987-2.986v-3.383A2.99,2.99,0,0,0,45.649,119.35ZM3.733,127.281H2.987a1.563,1.563,0,0,1-1.562-1.562v-3.383a1.563,1.563,0,0,1,1.562-1.562h.746ZM15.3,133.97a2.49,2.49,0,0,1-4.979,0V119.6a.712.712,0,1,0-1.425,0v13.967H7.975a2.82,2.82,0,0,1-2.817-2.817V117.322A2.82,2.82,0,0,1,7.975,114.5H8.9v1.935a.712.712,0,0,0,1.425,0V114.1a2.49,2.49,0,0,1,4.979,0V133.97Zm23.01,0a2.49,2.49,0,0,1-4.98,0V114.1a2.49,2.49,0,0,1,4.98,0Zm5.165-3.225a2.821,2.821,0,0,1-2.817,2.817h-.923V114.5h.923a2.82,2.82,0,0,1,2.817,2.817Zm3.732-5.026a1.563,1.563,0,0,1-1.562,1.562H44.9v-6.506h.746a1.563,1.563,0,0,1,1.562,1.562Z" transform="translate(0 -110.182)" fill="#fff" stroke="#fff" stroke-width="0.3"></path></g></g></g></svg>