<svg xmlns="http://www.w3.org/2000/svg" width="81" height="81" viewBox="0 0 81 81"><g id="Group_5877" data-name="Group 5877" transform="translate(-586 -1399)"><circle id="Ellipse_10" data-name="Ellipse 10" cx="40.5" cy="40.5" r="40.5" transform="translate(586 1399)" fill="#bfb4b2"></circle><g id="copa-de-champan" transform="translate(609.555 1418.697)"><path id="Path_348" data-name="Path 348" d="M15.88,39.127,8.573,37.7a.756.756,0,0,0-.8.363A37.145,37.145,0,0,0,3.962,48.5a18.42,18.42,0,0,0-.346,3.9,13.823,13.823,0,0,0,.351,2.924q.094.406.219.805a5.842,5.842,0,0,0,3.057,3.912L5.664,68.545l-3.4-.663A1.873,1.873,0,0,0,.189,69.007a2.327,2.327,0,0,0-.117.426,3.362,3.362,0,0,0-.067.416,1.856,1.856,0,0,0,1.5,1.946l8.291,1.618a1.89,1.89,0,0,0,1.893-.783,1.774,1.774,0,0,0,.242-.518,3.24,3.24,0,0,0,.127-.7,1.856,1.856,0,0,0-1.5-1.908L7.15,68.835l1.579-8.508A5.676,5.676,0,0,0,12.807,58.1c.1-.118.2-.239.3-.362a14.466,14.466,0,0,0,2.284-4.269,18.963,18.963,0,0,0,.7-2.6,37.144,37.144,0,0,0,.391-11.1A.757.757,0,0,0,15.88,39.127Zm-5.4,32a.4.4,0,0,1,.047.288,1.312,1.312,0,0,1-.063.279.343.343,0,0,1-.386.229l-8.29-1.618a.346.346,0,0,1-.236-.174.536.536,0,0,1-.006-.375.507.507,0,0,1,.129-.309.346.346,0,0,1,.3-.084l8.291,1.618A.342.342,0,0,1,10.484,71.13ZM8.828,39.293l6.218,1.213a36.559,36.559,0,0,1-.438,10.071c-.069.356-.15.706-.239,1.05H5.129a17.31,17.31,0,0,1,.318-2.838A36.646,36.646,0,0,1,8.828,39.293Zm4.428,15.378a11.292,11.292,0,0,1-1.4,2.216,5.183,5.183,0,0,1-2.5,1.834,2.422,2.422,0,0,1-1.27.009,3.192,3.192,0,0,1-1.8-1.545,8.508,8.508,0,0,1-1.016-3.1c-.047-.312-.081-.627-.1-.942H13.9A14.9,14.9,0,0,1,13.256,54.672Zm0,0" transform="translate(-0.001 -34.846)" fill="#fff"></path><path id="Path_349" data-name="Path 349" d="M167.7,98.307c.024,0,.047,0,.07,0a.757.757,0,0,0,.753-.688,36.834,36.834,0,0,0,.118-4.782.757.757,0,0,0-1.513.06,35.2,35.2,0,0,1-.113,4.584A.757.757,0,0,0,167.7,98.307Zm0,0" transform="translate(-154.425 -85.168)" fill="#fff"></path><path id="Path_350" data-name="Path 350" d="M253.7,69.619a2.838,2.838,0,0,0-.248-.809,1.805,1.805,0,0,0-.47-.557,1.864,1.864,0,0,0-1.512-.37l-3.4.664-1.66-8.51c2.918-1.213,4.346-6.046,3.275-11.535a37.156,37.156,0,0,0-3.812-10.436.757.757,0,0,0-.8-.363l-7.307,1.426a.758.758,0,0,0-.6.638,37.155,37.155,0,0,0,.391,11.1c1.071,5.489,4.212,9.431,7.371,9.458l1.66,8.51-3.4.664a1.888,1.888,0,0,0-1.454,1.407,2.383,2.383,0,0,0,.1,1.265,1.856,1.856,0,0,0,2.118,1.241L252.23,71.8A1.873,1.873,0,0,0,253.7,69.619Zm-15.1-29.111,6.218-1.213a36.637,36.637,0,0,1,3.38,9.5c.039.2.073.395.1.591h-9.473A37.228,37.228,0,0,1,238.594,40.508Zm13.564,29.658a.339.339,0,0,1-.218.144l-8.29,1.618a.347.347,0,0,1-.3-.083.515.515,0,0,1-.13-.31.583.583,0,0,1-.005-.351.345.345,0,0,1,.247-.2l8.29-1.618a.349.349,0,0,1,.386.229A.679.679,0,0,1,252.158,70.166ZM244.8,58.81a3.42,3.42,0,0,1-1.783-.72,7.107,7.107,0,0,1-1.365-1.363,10.534,10.534,0,0,1-.666-.962,13.937,13.937,0,0,1-1.055-2.112A16.829,16.829,0,0,1,239.1,50.9h9.374a13.781,13.781,0,0,1-.284,4.133,8.988,8.988,0,0,1-.346,1.133,3.887,3.887,0,0,1-2.261,2.562A2.31,2.31,0,0,1,244.8,58.81Zm0,0" transform="translate(-219.05 -34.847)" fill="#fff"></path><path id="Path_351" data-name="Path 351" d="M219.377.757a.757.757,0,0,0-1.514,0V3.216a.757.757,0,1,0,1.514,0Zm0,0" transform="translate(-201.439)" fill="#fff"></path><path id="Path_352" data-name="Path 352" d="M174.4,5.054a.757.757,0,0,0,1.294-.786l-.933-1.536a.757.757,0,1,0-1.294.786Zm0,0" transform="translate(-160.286 -2.19)" fill="#fff"></path><path id="Path_353" data-name="Path 353" d="M252.351,5.307a.756.756,0,0,0,1.04-.254l.933-1.536a.757.757,0,1,0-1.294-.786L252.1,4.267A.757.757,0,0,0,252.351,5.307Zm0,0" transform="translate(-232.989 -2.189)" fill="#fff"></path><path id="Path_354" data-name="Path 354" d="M334.174,112.569q.432,1.184.776,2.4c.09.32.14.656.448.842a.757.757,0,0,0,1.121-.844c-.1-.393-.217-.782-.336-1.169s-.254-.8-.391-1.2c-.068-.2-.13-.4-.211-.589a.754.754,0,0,0-.265-.324.757.757,0,0,0-1.141.882Zm0,0" transform="translate(-308.938 -103.144)" fill="#fff"></path><path id="Path_355" data-name="Path 355" d="M162.848,194.717a.76.76,0,1,1-.76-.76A.76.76,0,0,1,162.848,194.717Zm0,0" transform="translate(-149.166 -179.335)" fill="#fff"></path><path id="Path_356" data-name="Path 356" d="M320.469,75.244a.76.76,0,1,1-.76-.76A.76.76,0,0,1,320.469,75.244Zm0,0" transform="translate(-294.904 -68.869)" fill="#fff"></path></g></g></svg>