<svg xmlns="http://www.w3.org/2000/svg" xmlns:xlink="http://www.w3.org/1999/xlink" width="82" height="81" viewBox="0 0 82 81"><defs><clipPath id="clip-path"><rect id="Rectangle_38" data-name="Rectangle 38" width="41.906" height="41.906" fill="#fff"></rect></clipPath></defs><g id="Group_5878" data-name="Group 5878" transform="translate(-493 -1399)"><ellipse id="Ellipse_9" data-name="Ellipse 9" cx="41" cy="40.5" rx="41" ry="40.5" transform="translate(493 1399)" fill="#bfb4b2"></ellipse><g id="Group_5737" data-name="Group 5737" transform="translate(512.835 1418.697)"><g id="Group_43" data-name="Group 43" transform="translate(0 0)" clip-path="url(#clip-path)"><path id="Path_41" data-name="Path 41" d="M35.767,0H6.139A6.145,6.145,0,0,0,0,6.139V35.767a6.145,6.145,0,0,0,6.139,6.139H35.767a6.145,6.145,0,0,0,6.139-6.139V6.139A6.145,6.145,0,0,0,35.767,0m3.684,35.767a3.688,3.688,0,0,1-3.684,3.684H6.139a3.687,3.687,0,0,1-3.682-3.684V6.139A3.687,3.687,0,0,1,6.139,2.455H35.767a3.688,3.688,0,0,1,3.684,3.684Z" transform="translate(0 0)" fill="#fff"></path><path id="Path_42" data-name="Path 42" d="M33.55,16.946l1.105-1.105a1.227,1.227,0,0,0-1.736-1.735l-1.05,1.05-1.269-3.8a3.679,3.679,0,0,0-3.494-2.519H13.458a3.678,3.678,0,0,0-3.494,2.519L8.7,15.156l-1.051-1.05a1.228,1.228,0,0,0-1.738,1.735l1.105,1.105a3.684,3.684,0,0,0-1.464,2.938V24.8a3.688,3.688,0,0,0,2.456,3.472v1.439a3.683,3.683,0,0,0,7.366,0V28.478h9.822v1.229a3.682,3.682,0,1,0,7.365,0V28.267A3.688,3.688,0,0,0,35.014,24.8V19.885a3.684,3.684,0,0,0-1.464-2.938M13.458,11.29H27.106a1.23,1.23,0,0,1,1.166.84L29.627,16.2H10.935l1.358-4.071a1.227,1.227,0,0,1,1.165-.84m-.541,18.417a1.228,1.228,0,0,1-2.456,0V28.478h2.456Zm15.959,1.227a1.229,1.229,0,0,1-1.227-1.227V28.478H30.1v1.229a1.23,1.23,0,0,1-1.229,1.227m2.456-4.911H25.193V24.8a1.228,1.228,0,0,0-2.456,0v1.227H17.826V24.8a1.227,1.227,0,0,0-2.455,0v1.227H9.231A1.228,1.228,0,0,1,8.005,24.8V23.568h3.682a1.228,1.228,0,1,0,0-2.456H8.005V19.885a1.228,1.228,0,0,1,1.226-1.227h22.1a1.228,1.228,0,0,1,1.223,1.227v1.227H28.876a1.228,1.228,0,0,0,0,2.456h3.682V24.8a1.228,1.228,0,0,1-1.226,1.227" transform="translate(0.671 1.069)" fill="#fff"></path></g></g></g></svg>