<svg xmlns="http://www.w3.org/2000/svg" width="81" height="81" viewBox="0 0 81 81"><g id="Group_5872" data-name="Group 5872" transform="translate(-1053 -1399)"><circle id="Ellipse_15" data-name="Ellipse 15" cx="40.5" cy="40.5" r="40.5" transform="translate(1053 1399)" fill="#bfb4b2"></circle><g id="pista" transform="translate(1075.356 1422.18)"><g id="Group_5735" data-name="Group 5735" transform="translate(0 0)"><g id="Group_5734" data-name="Group 5734"><path id="Path_371" data-name="Path 371" d="M286.715,281.376a.717.717,0,1,0,.717.717A.717.717,0,0,0,286.715,281.376Z" transform="translate(-265.507 -262.747)" fill="#fff" stroke="#fff" stroke-width="0.3"></path><path id="Path_372" data-name="Path 372" d="M115.762,215.907a17.963,17.963,0,0,1-3.586-5.435,6.134,6.134,0,0,0-11.324,0,17.33,17.33,0,0,1-3.836,5.673l-.008.007a6.144,6.144,0,0,0-2.044,4.571,6.08,6.08,0,0,0,2.773,5.155,6.8,6.8,0,0,0,5.573.9,12.934,12.934,0,0,1,6.431.013,6.754,6.754,0,0,0,5.547-.872,6.171,6.171,0,0,0,.473-10.013Zm-1.263,8.817a5.323,5.323,0,0,1-4.371.688,14.36,14.36,0,0,0-7.2-.015,5.366,5.366,0,0,1-4.4-.71,4.66,4.66,0,0,1-2.135-3.963,4.709,4.709,0,0,1,1.564-3.5,18.449,18.449,0,0,0,4.206-6.183l0-.011a4.7,4.7,0,0,1,8.683,0l0,.011a19.394,19.394,0,0,0,3.922,5.915.738.738,0,0,0,.065.057,4.738,4.738,0,0,1-.348,7.713Z" transform="translate(-88.161 -193.42)" fill="#fff" stroke="#fff" stroke-width="0.3"></path><path id="Path_373" data-name="Path 373" d="M306.175,316.967a.717.717,0,1,0-1.2.782,20.479,20.479,0,0,0,2.643,3.3.717.717,0,1,0,1.01-1.017A19,19,0,0,1,306.175,316.967Z" transform="translate(-283.015 -295.486)" fill="#fff" stroke="#fff" stroke-width="0.3"></path><path id="Path_374" data-name="Path 374" d="M125.054,31.168a7.28,7.28,0,0,0,.788-4.385c-.364-3.082-2.489-5.664-4.864-5.379a3.66,3.66,0,0,0-2.685,1.982,7.284,7.284,0,0,0-.788,4.385C118.1,32.8,122.785,35.132,125.054,31.168ZM119.536,24.1a2.2,2.2,0,0,1,1.793-1.281c1.41,0,2.825,1.893,3.09,4.134a5.825,5.825,0,0,1-.608,3.5c-1.651,2.885-4.492.453-4.882-2.853A5.83,5.83,0,0,1,119.536,24.1Z" transform="translate(-109.033 -21.383)" fill="#fff" stroke="#fff" stroke-width="0.3"></path><path id="Path_375" data-name="Path 375" d="M9.157,170.462a6.5,6.5,0,0,0-.71-3.977,6.5,6.5,0,0,0-2.833-2.881,3.884,3.884,0,0,0-3.558-.088A3.885,3.885,0,0,0,.07,166.47a6.5,6.5,0,0,0,.71,3.977,6.5,6.5,0,0,0,2.833,2.88,3.9,3.9,0,0,0,3.558.089A3.885,3.885,0,0,0,9.157,170.462Zm-2.644,1.68a2.494,2.494,0,0,1-2.269-.1,5.066,5.066,0,0,1-2.191-2.251,5.064,5.064,0,0,1-.568-3.089,2.494,2.494,0,0,1,1.229-1.909h0a2.509,2.509,0,0,1,2.268.1,5.065,5.065,0,0,1,2.191,2.252,5.065,5.065,0,0,1,.568,3.089A2.494,2.494,0,0,1,6.513,172.142Z" transform="translate(0.001 -152.971)" fill="#fff" stroke="#fff" stroke-width="0.3"></path><path id="Path_376" data-name="Path 376" d="M280.735,33.379c2.172,0,4.155-2.372,4.514-5.4.382-3.225-1.243-6.387-3.825-6.387-2.172,0-4.155,2.372-4.513,5.4C276.529,30.223,278.159,33.379,280.735,33.379Zm-2.4-6.219c.265-2.241,1.68-4.135,3.09-4.135a1.357,1.357,0,0,1,.175.01,2.418,2.418,0,0,1,1.7,1.434,5.984,5.984,0,0,1,.523,3.341c-.275,2.322-1.814,4.313-3.266,4.125h-.008a2.382,2.382,0,0,1-1.7-1.433A5.987,5.987,0,0,1,278.334,27.16Z" transform="translate(-257.018 -21.578)" fill="#fff" stroke="#fff" stroke-width="0.3"></path><path id="Path_377" data-name="Path 377" d="M392.369,166.522a3.7,3.7,0,0,0-5.544-2.864,6.827,6.827,0,0,0-3.543,6.857,3.7,3.7,0,0,0,5.543,2.864A6.826,6.826,0,0,0,392.369,166.522Zm-4.174,5.57a2.494,2.494,0,0,1-2.269.1h0a2.494,2.494,0,0,1-1.229-1.909,5.4,5.4,0,0,1,2.76-5.341,2.278,2.278,0,0,1,3.5,1.808A5.4,5.4,0,0,1,388.2,172.092Z" transform="translate(-355.754 -153.02)" fill="#fff" stroke="#fff" stroke-width="0.3"></path></g></g></g></g></svg>