<svg xmlns="http://www.w3.org/2000/svg" width="83" height="81" viewBox="0 0 83 81"><g id="Group_5881" data-name="Group 5881" transform="translate(-211 -1399)"><ellipse id="Ellipse_6" data-name="Ellipse 6" cx="41.5" cy="40.5" rx="41.5" ry="40.5" transform="translate(211 1399)" fill="#bfb4b2"></ellipse><g id="g3840" transform="translate(232.778 1423.251)"><g id="g3842" transform="translate(0 0)"><g id="Grupo_5736" data-name="Grupo 5736"><g id="g3850" transform="translate(16.819 2.3)"><path id="path3852" d="M-60.319,0h3.884a3.681,3.681,0,0,1,3.681,3.681h0a3.681,3.681,0,0,1-3.681,3.681h-3.884A3.681,3.681,0,0,1-64,3.681h0A3.681,3.681,0,0,1-60.319,0Z" transform="translate(64)" fill="none" stroke="#fff" stroke-linecap="round" stroke-linejoin="round" stroke-miterlimit="10" stroke-width="1.5"></path></g><g id="g3854" transform="translate(14.058 29.945)"><path id="path3856" d="M-373.47,0a7.053,7.053,0,0,1-6.175,3.64h-16.614" transform="translate(396.259)" fill="none" stroke="#fff" stroke-linecap="round" stroke-linejoin="round" stroke-miterlimit="10" stroke-width="1.5"></path></g><g id="g3858" transform="translate(29.138 19.476)"><path id="path3860" d="M0,0H1.534A7.054,7.054,0,0,1,7.777,3.767" fill="none" stroke="#fff" stroke-linecap="round" stroke-linejoin="round" stroke-miterlimit="10" stroke-width="1.5"></path></g><g id="g3862" transform="translate(12.177 9.662)"><path id="path3864" d="M0-29.838a4.9,4.9,0,0,1,3.815-1.821H16.961a4.907,4.907,0,0,1,4.907,4.907h0a4.907,4.907,0,0,1-4.907,4.907H5.459" transform="translate(0 31.659)" fill="none" stroke="#fff" stroke-linecap="round" stroke-linejoin="round" stroke-miterlimit="10" stroke-width="1.5"></path></g><g id="g3866" transform="translate(0 16.997)"><path id="path3868" d="M-298.639-59.269a9.875,9.875,0,0,0-3.875-3.616h-9.039a9.826,9.826,0,0,0-5.308,8.729,9.812,9.812,0,0,0,3.927,7.86h11.6" transform="translate(316.862 62.885)" fill="none" stroke="#fff" stroke-linecap="round" stroke-linejoin="round" stroke-miterlimit="10" stroke-width="1.5"></path></g><g id="g3870" transform="translate(6.65 8.716)"><path id="path3872" d="M-52.084,0l-.007.009h0l-2.48,3.119a3.176,3.176,0,0,0,.24,4.225,3.181,3.181,0,0,0,4.494,0,3.176,3.176,0,0,0,.24-4.225Z" transform="translate(55.262)" fill="none" stroke="#fff" stroke-linecap="round" stroke-linejoin="round" stroke-miterlimit="10" stroke-width="1.5"></path></g><g id="g3874" transform="translate(9.828 13.714)"><path id="path3876" d="M0-53.8v-3.283" transform="translate(0 57.088)" fill="none" stroke="#fff" stroke-linecap="round" stroke-linejoin="round" stroke-miterlimit="10" stroke-width="1.5"></path></g><g id="g3878" transform="translate(15.078 20.666)"><path id="path3880" d="M-104.17-84.209a7.9,7.9,0,0,0-3.181-5.138,7.9,7.9,0,0,0-3.175,5.1" transform="translate(110.526 89.348)" fill="none" stroke="#fff" stroke-linecap="round" stroke-linejoin="round" stroke-miterlimit="10" stroke-width="1.5"></path></g><g id="g3882" transform="translate(18.253 24.318)"><path id="path3884" d="M-37.9-37.9a7.889,7.889,0,0,0-2.211,6.853,7.889,7.889,0,0,0,6.853-2.211,7.889,7.889,0,0,0,2.211-6.853A7.889,7.889,0,0,0-37.9-37.9Z" transform="translate(40.207 40.207)" fill="none" stroke="#fff" stroke-linecap="round" stroke-linejoin="round" stroke-miterlimit="10" stroke-width="1.5"></path></g><g id="g3886" transform="translate(8.988 24.318)"><path id="path3888" d="M-113.977-37.9a7.889,7.889,0,0,1,2.211,6.853,7.889,7.889,0,0,1-6.853-2.211,7.889,7.889,0,0,1-2.211-6.853A7.889,7.889,0,0,1-113.977-37.9Z" transform="translate(120.931 40.207)" fill="none" stroke="#fff" stroke-linecap="round" stroke-linejoin="round" stroke-miterlimit="10" stroke-width="1.5"></path></g><g id="g3890" transform="translate(5.422)"><path id="path3892" d="M-10.411,0h0a2.169,2.169,0,0,0,0,3.067h0a2.169,2.169,0,0,1,0,3.067" transform="translate(11.046)" fill="none" stroke="#fff" stroke-linecap="round" stroke-linejoin="round" stroke-miterlimit="10" stroke-width="1.5"></path></g><g id="g3894" transform="translate(1.331 3.067)"><path id="path3896" d="M-10.411,0h0a2.169,2.169,0,0,0,0,3.067h0a2.169,2.169,0,0,1,0,3.067" transform="translate(11.046)" fill="none" stroke="#fff" stroke-linecap="round" stroke-linejoin="round" stroke-miterlimit="10" stroke-width="1.5"></path></g><g id="g3898" transform="translate(37.726 26.608)"><path id="path3900" d="M0,0H0" fill="none" stroke="#fff" stroke-linecap="round" stroke-linejoin="round" stroke-miterlimit="10" stroke-width="1.5"></path></g></g></g></g></g></svg>