<svg xmlns="http://www.w3.org/2000/svg" xmlns:xlink="http://www.w3.org/1999/xlink" width="271" height="79" viewBox="0 0 271 79"><defs><clipPath id="clip-path"><rect id="Rectangle_3894" data-name="Rectangle 3894" width="271" height="79" transform="translate(-409 337)" fill="#fff" stroke="#707070" stroke-width="1"></rect></clipPath><clipPath id="clip-path-2"><rect id="Rectangle_19" data-name="Rectangle 19" width="337.117" height="151.559" fill="none"></rect></clipPath><clipPath id="clip-path-3"><rect id="Rectangle_17" data-name="Rectangle 17" width="73.505" height="38.627" fill="none"></rect></clipPath><clipPath id="clip-path-4"><rect id="Rectangle_18" data-name="Rectangle 18" width="73.023" height="39.517" fill="none"></rect></clipPath></defs><g id="Mask_Group_8" data-name="Mask Group 8" transform="translate(409 -337)" clip-path="url(#clip-path)"><g id="Group_25" data-name="Group 25" transform="translate(-435 298.441)"><g id="Group_28" data-name="Group 28"><g id="Group_23" data-name="Group 23"><g id="Group_22" data-name="Group 22" clip-path="url(#clip-path-2)"><path id="Path_4" data-name="Path 4" d="M143.617,55.952a12.755,12.755,0,0,0-5.591-2.242l-1.982-.265a5,5,0,0,1-1.974-.747A5.059,5.059,0,0,1,132.4,51.03a4.365,4.365,0,0,1-.636-2.328,4.59,4.59,0,0,1,1.437-3.409,5.05,5.05,0,0,1,1.605-1.118,4.905,4.905,0,0,1,1.868-.344,4.59,4.59,0,0,1,2.385.647,4.927,4.927,0,0,1,2.385,4.2V49.2l3.1-.006v-.514a7.759,7.759,0,0,0-4.809-7.252,8.313,8.313,0,0,0-7.2.416,7.712,7.712,0,0,0-2.917,2.824,7.844,7.844,0,0,0-.069,7.726,8.32,8.32,0,0,0,5.567,4.034l2.482.442a10.519,10.519,0,0,1,4.405,1.7A9.427,9.427,0,0,1,144.993,62a9.777,9.777,0,0,1,1.119,4.535,9.376,9.376,0,0,1-.757,3.739,13.366,13.366,0,0,1-.938,1.763,8.437,8.437,0,0,1-1.172,1.453,10.535,10.535,0,0,1-3.166,2.176,9.647,9.647,0,0,1-8.794-.6,10.784,10.784,0,0,1-3.7-3.762,9.533,9.533,0,0,1-1.333-4.825v-.514l-2.968.006v.514a13.107,13.107,0,0,0,1.77,6.635,13.547,13.547,0,0,0,2.084,2.685,13.039,13.039,0,0,0,9.225,3.746,12.535,12.535,0,0,0,6.451-1.791,13.147,13.147,0,0,0,4.724-4.754,12.764,12.764,0,0,0,.2-12.441,13.363,13.363,0,0,0-4.12-4.617" transform="translate(17.971 5.947)" fill="#fff"></path><path id="Path_5" data-name="Path 5" d="M168.855,66.308a7.507,7.507,0,0,1-.678,3.145,8.4,8.4,0,0,1-4.483,4.352,8.233,8.233,0,0,1-3.18.636,9.592,9.592,0,0,1-1.726-.146,9.153,9.153,0,0,1-1.586-.435,7.808,7.808,0,0,1-2.691-1.773,8.014,8.014,0,0,1-1.766-2.879,11.349,11.349,0,0,1-.651-3.916l-.025-12.844-3.1.006.025,12.756a14.385,14.385,0,0,0,.9,5.1,11.771,11.771,0,0,0,2.442,3.98A11.008,11.008,0,0,0,156,76.817a10.85,10.85,0,0,0,2.243.675,12.993,12.993,0,0,0,2.364.205,11.95,11.95,0,0,0,5.236-1.066,10.3,10.3,0,0,0,3.025-2.317v.78l3.1-.006-.044-22.68-3.1.007Z" transform="translate(21.715 7.64)" fill="#fff"></path><path id="Path_6" data-name="Path 6" d="M192.637,55.233a10.834,10.834,0,0,0-3.7-2.428,12.3,12.3,0,0,0-4.587-.831,13.44,13.44,0,0,0-2.816.284,10.668,10.668,0,0,0-2.421.827,10.22,10.22,0,0,0-3.023,2.316l0-.8-3.1.006.045,22.768,3.1-.006-.028-13.982a7.613,7.613,0,0,1,.659-3.105,8.679,8.679,0,0,1,1.854-2.678,8.193,8.193,0,0,1,2.7-1.778,8.3,8.3,0,0,1,3.09-.615,9.492,9.492,0,0,1,3.435.594,7.46,7.46,0,0,1,2.675,1.758A8.039,8.039,0,0,1,192.3,60.45a11.566,11.566,0,0,1,.642,3.951l.025,12.933,3.1-.006L196.039,64.3a14.231,14.231,0,0,0-.91-5.143,11.3,11.3,0,0,0-2.492-3.929" transform="translate(25.217 7.576)" fill="#fff"></path><path id="Path_7" data-name="Path 7" d="M213.076,63.622a9.45,9.45,0,0,0-3.367-3.353,8.561,8.561,0,0,0-4.389-1.233,3.14,3.14,0,0,1-2.013-.667,2.156,2.156,0,0,1-.777-1.669,2.358,2.358,0,0,1,.655-1.667,2.75,2.75,0,0,1,.789-.576,2.1,2.1,0,0,1,.864-.168,2.169,2.169,0,0,1,1.673.785,2.628,2.628,0,0,1,.736,1.819v.513l3.035-.006v-.514a5.445,5.445,0,0,0-2.689-4.74,5.688,5.688,0,0,0-1.327-.574,5.276,5.276,0,0,0-2.775.006,5.472,5.472,0,0,0-1.263.537,5.226,5.226,0,0,0-1.9,2,5.37,5.37,0,0,0-.675,2.587,5.191,5.191,0,0,0,1.452,3.718,5.286,5.286,0,0,0,4,1.512,6.057,6.057,0,0,1,3.045.828,6.75,6.75,0,0,1,2.374,2.277,5.889,5.889,0,0,1,.905,3.193,6.534,6.534,0,0,1-.786,3.158,6.457,6.457,0,0,1-2.21,2.375,6.014,6.014,0,0,1-1.507.754,5.37,5.37,0,0,1-1.617.235,6.435,6.435,0,0,1-4.738-1.926A6.112,6.112,0,0,1,198.6,68.3v-.514l-3.057.007v.513a9.1,9.1,0,0,0,.767,3.611,9.472,9.472,0,0,0,2.1,3.06,10.35,10.35,0,0,0,3.053,2.049,8.833,8.833,0,0,0,3.583.762,9.173,9.173,0,0,0,3.621-.742,9.343,9.343,0,0,0,5.036-5.181,9.77,9.77,0,0,0,.738-3.728,8.016,8.016,0,0,0-.352-2.334,9.2,9.2,0,0,0-1.008-2.184" transform="translate(28.504 7.491)" fill="#fff"></path><path id="Path_8" data-name="Path 8" d="M240.25,62.606l-.157-.635a13.7,13.7,0,0,0-2.589-5.344,12.591,12.591,0,0,0-4.562-3.56,13.34,13.34,0,0,0-5.682-1.252,12.724,12.724,0,0,0-3.383.459,12.957,12.957,0,0,0-3.147,1.343,13.361,13.361,0,0,0-4.709,4.727,12.788,12.788,0,0,0-.682,11.453,13.227,13.227,0,0,0,6.955,7.026,12.467,12.467,0,0,0,5.018,1.015,13.36,13.36,0,0,0,5.874-1.414,12.567,12.567,0,0,0,4.64-3.765l.1-.136-.015-7.475-1,2.9a9.488,9.488,0,0,1-2.157,3.506,10.584,10.584,0,0,1-3.434,2.389,9.874,9.874,0,0,1-3.925.846,9.507,9.507,0,0,1-4.991-1.353,10.314,10.314,0,0,1-3.614-3.649,9.685,9.685,0,0,1-1.344-4.967,7.96,7.96,0,0,1,.27-2.074ZM218.941,59.59a9.215,9.215,0,0,1,1.87-2.166,10.582,10.582,0,0,1,3.209-1.888,9.522,9.522,0,0,1,3.246-.643,10.038,10.038,0,0,1,1.344.081,11.736,11.736,0,0,1,1.284.252,10.2,10.2,0,0,1,2.482,1.013,9.89,9.89,0,0,1,2.127,1.681,8.625,8.625,0,0,1,1.241,1.637Z" transform="translate(31.238 7.553)" fill="#fff"></path><path id="Path_9" data-name="Path 9" d="M249.946,74.841a5,5,0,0,1-3.594-1.453,4.577,4.577,0,0,1-1.233-1.858,8.328,8.328,0,0,1-.329-2.476l-.026-13.446,5.438-.01-.006-2.722-5.437.01L244.749,48l-3.056.006.009,4.883-4.292.008.006,2.722,4.292-.008.026,13.6c0,.462.017.874.049,1.227s.079.707.146,1.063a9.526,9.526,0,0,0,.661,1.988,10.717,10.717,0,0,0,1.274,1.824,8.113,8.113,0,0,0,6.087,2.6h.518l-.006-3.079Z" transform="translate(34.607 6.997)" fill="#fff"></path><path id="Path_10" data-name="Path 10" d="M135.527,90.237l-4.561.008-.018-9.354,4.469-.009c2.025,0,3,1.208,3.006,2.581a2.011,2.011,0,0,1-.985,1.85v.023a2.178,2.178,0,0,1,1.4,2.18c0,1.674-1.17,2.715-3.311,2.72m-.225-8.072-3.1.006.14.137,0,2.344-.139.139,3.095-.006c1.268,0,1.687-.592,1.684-1.331,0-.854-.537-1.291-1.689-1.289m.217,3.9-3.3.007.14.137,0,2.61-.139.139,3.3-.006c1.4,0,1.884-.524,1.883-1.436,0-.889-.55-1.454-1.888-1.452" transform="translate(19.088 11.79)" fill="#fff"></path><path id="Path_11" data-name="Path 11" d="M148.876,90.343c-2.99.006-4.565-1.909-4.57-4.727s1.562-4.853,4.552-4.859,4.565,2.013,4.57,4.842-1.609,4.739-4.552,4.745m-.016-8.3c-2.234,0-3.127,1.577-3.123,3.575,0,1.952.914,3.451,3.137,3.446,2.246,0,3.127-1.507,3.123-3.459s-.891-3.567-3.137-3.562" transform="translate(21.035 11.772)" fill="#fff"></path><path id="Path_12" data-name="Path 12" d="M167.379,85.881c.006,2.842-1.306,4.415-4.124,4.419s-4.156-1.539-4.163-4.4l-.008-5.059,1.4,0,.01,5.046c0,1.975.728,3.141,2.752,3.136,2,0,2.744-1.171,2.739-3.146l-.01-5.047,1.4,0Z" transform="translate(23.19 11.781)" fill="#fff"></path><path id="Path_13" data-name="Path 13" d="M180.184,90.151l-6.667.013L173.5,80.81l1.4,0,.015,7.934-.139.139,5.41-.01Z" transform="translate(25.291 11.779)" fill="#fff"></path><path id="Path_14" data-name="Path 14" d="M193.1,90.128l-7.215.014-.017-9.354,7.214-.015,0,1.282-5.957.011.14.139,0,2.471-.14.15,5.4-.01,0,1.271-5.4.01.139.139.006,2.483-.14.139,5.958-.011Z" transform="translate(27.093 11.774)" fill="#fff"></path><path id="Path_15" data-name="Path 15" d="M208.067,80.745,204,90.107l-1.361,0-4.1-9.347,1.559,0L203.03,87.6l.281.923h.024l.289-.925,2.907-6.854Z" transform="translate(28.94 11.77)" fill="#fff"></path><path id="Path_16" data-name="Path 16" d="M221.487,90.073l-1.524,0-.992-2.169.069-.127-5.015.009.07.127-.984,2.174-1.525,0,4.252-9.363,1.361,0ZM218.4,86.5l-.14-.139-1.448-3.173-.27-.855h-.023l-.266.844-1.448,3.19-.139.139Z" transform="translate(30.842 11.767)" fill="#fff"></path><path id="Path_17" data-name="Path 17" d="M235.212,90.046l-1.559,0-1.226-2.469a2.208,2.208,0,0,0-2.272-1.266l-2.117,0,.14.126.007,3.615-1.4,0-.018-9.355,4.27-.008c1.779,0,3.317.918,3.322,2.812A2.538,2.538,0,0,1,232.6,85.87v.023a2.353,2.353,0,0,1,1.108,1.118Zm-4.17-8.065-3.013.006.14.137,0,2.761-.139.15,2.9-.006c1.3,0,2-.651,2-1.517,0-1.108-.77-1.534-1.887-1.532" transform="translate(33.056 11.763)" fill="#fff"></path><path id="Path_18" data-name="Path 18" d="M244.4,90.028l-3.758.008-.018-9.355,3.711-.007c3.805-.008,4.473,2.474,4.478,4.669s-.643,4.678-4.412,4.685m-.179-8.072-2.339,0,.14.137.013,6.515-.14.138,2.385,0c2.688,0,3.1-1.553,3.1-3.4s-.449-3.395-3.16-3.389" transform="translate(35.076 11.76)" fill="#fff"></path><path id="Path_19" data-name="Path 19" d="M51.137,68.172A23.746,23.746,0,1,1,74.928,91.695,23.656,23.656,0,0,1,51.137,68.172" transform="translate(7.454 6.495)" fill="#dda57f"></path><g id="Group_18" data-name="Group 18" transform="translate(34.494 51.005)" style="mix-blend-mode: multiply;isolation: isolate"><g id="Group_17" data-name="Group 17"><g id="Group_16" data-name="Group 16" clip-path="url(#clip-path-3)"><path id="Path_20" data-name="Path 20" d="M31.413,59.573c2.516-.607,72.2-15.057,72.2-15.057L30.1,83.143Z" transform="translate(-30.106 -44.516)" fill="#bb7a66"></path></g></g></g><g id="Group_21" data-name="Group 21" transform="translate(58.486 53.456)" style="mix-blend-mode: multiply;isolation: isolate"><g id="Group_20" data-name="Group 20"><g id="Group_19" data-name="Group 19" clip-path="url(#clip-path-4)"><path id="Path_21" data-name="Path 21" d="M123.052,70.239c-2.507.638-72.007,15.933-72.007,15.933l73.023-39.518Z" transform="translate(-51.045 -46.655)" fill="#806b6e"></path></g></g></g></g></g></g></g></g></svg>