<svg xmlns="http://www.w3.org/2000/svg" width="31.316" height="31.467" viewBox="0 0 31.316 31.467"><path id="Path_25" data-name="Path 25" d="M27,4.573A15.6,15.6,0,0,0,2.462,23.387L.25,31.467,8.516,29.3a15.576,15.576,0,0,0,7.451,1.9h.007A15.6,15.6,0,0,0,27,4.573Zm-11.03,23.99h-.005a12.944,12.944,0,0,1-6.6-1.807L8.9,26.476,3.994,27.762,5.3,22.98l-.308-.49a12.96,12.96,0,1,1,10.979,6.073Zm7.109-9.706c-.389-.2-2.305-1.137-2.662-1.268s-.617-.195-.876.2-1.006,1.268-1.234,1.527-.454.293-.844.1a10.641,10.641,0,0,1-3.133-1.934,11.752,11.752,0,0,1-2.167-2.7c-.227-.39,0-.581.171-.8a11.021,11.021,0,0,0,.974-1.333.717.717,0,0,0-.033-.683c-.1-.195-.876-2.113-1.2-2.893-.317-.759-.637-.657-.877-.669s-.487-.014-.747-.014a1.431,1.431,0,0,0-1.039.488,4.37,4.37,0,0,0-1.363,3.25,7.579,7.579,0,0,0,1.591,4.03c.195.26,2.747,4.2,6.656,5.883a22.3,22.3,0,0,0,2.221.821,5.341,5.341,0,0,0,2.454.154,4.014,4.014,0,0,0,2.63-1.853,3.255,3.255,0,0,0,.227-1.853C23.732,19.149,23.472,19.052,23.082,18.857Zm0,0" transform="translate(-0.25)" fill="#fff" fill-rule="evenodd"></path></svg>